<svg width="56" height="56" viewBox="0 0 56 56" fill="none" xmlns="http://www.w3.org/2000/svg">
<circle cx="28" cy="28" r="28" fill="#115099"/>
<path d="M25.6313 22.4481C25.6313 23.2606 25.6312 24.0481 25.8875 24.7856C23.1937 27.9481 16.0813 36.3043 15.4188 36.9418C15.2871 37.0599 15.1817 37.2044 15.1096 37.366C15.0375 37.5275 15.0001 37.7024 15 37.8793C15 38.4105 15.325 38.923 15.6 39.2105C16.0125 39.6418 17.775 41.273 18.1 40.9605C19.0625 40.023 19.2563 39.773 19.65 39.3855C20.2438 38.8043 19.5875 37.6168 19.7937 37.1355C20 36.6543 20.2187 36.5605 20.575 36.4855C20.9312 36.4105 21.5625 36.6668 22.0562 36.673C22.575 36.6793 22.8562 36.4605 23.2437 36.098C23.5562 35.8105 23.7813 35.5418 23.7875 35.123C23.8 34.5605 22.9875 33.8168 23.5938 33.223C24.2 32.6293 25.075 33.6105 25.7188 33.5355C26.3625 33.4605 27.1438 32.5668 27.225 32.1855C27.3063 31.8043 26.4937 30.823 26.6187 30.2668C26.6625 30.0793 27.0438 29.6418 27.3313 29.5793C27.6188 29.5168 28.8937 30.0106 29.1812 29.9481C29.5312 29.8731 29.9375 29.5043 30.2687 29.2981C31.2375 29.7168 32.1187 29.8856 33.25 29.8856C37.5312 29.8856 41 26.5481 41 22.4356C41 18.3231 37.5312 15 33.25 15C28.9688 15 25.6313 18.3356 25.6313 22.4481ZM37 21C37 21.3955 36.8827 21.7822 36.6629 22.1111C36.4432 22.44 36.1308 22.6963 35.7654 22.8477C35.3999 22.9991 34.9978 23.0387 34.6098 22.9615C34.2219 22.8844 33.8655 22.6939 33.5858 22.4142C33.3061 22.1345 33.1156 21.7781 33.0384 21.3902C32.9613 21.0022 33.0009 20.6001 33.1522 20.2346C33.3036 19.8692 33.56 19.5568 33.8889 19.337C34.2178 19.1173 34.6044 19 35 19C35.5304 19 36.0391 19.2107 36.4142 19.5858C36.7893 19.9608 37 20.4695 37 21Z" fill="#F5F9FD"/>
</svg>
