<svg width="56" height="56" viewBox="0 0 56 56" fill="none" xmlns="http://www.w3.org/2000/svg">
<path d="M28 0C12.561 0 0 12.561 0 28C0 43.439 12.561 56 28 56C43.439 56 56 43.439 56 28C56 12.561 43.439 0 28 0ZM42.5721 18.616L24.4798 40.1544C24.2813 40.3908 24.0344 40.5818 23.7557 40.7144C23.477 40.847 23.173 40.9182 22.8644 40.9231H22.8281C22.5262 40.923 22.2277 40.8594 21.9519 40.7365C21.6762 40.6136 21.4294 40.4341 21.2275 40.2096L13.4737 31.5942C13.2767 31.3854 13.1235 31.1393 13.0231 30.8703C12.9227 30.6014 12.877 30.3152 12.8888 30.0284C12.9005 29.7415 12.9695 29.46 13.0917 29.2002C13.2138 28.9404 13.3866 28.7077 13.6 28.5157C13.8134 28.3237 14.063 28.1762 14.3342 28.0821C14.6053 27.9879 14.8926 27.9489 15.179 27.9673C15.4655 27.9857 15.7454 28.0612 16.0023 28.1894C16.2591 28.3175 16.4878 28.4957 16.6748 28.7135L22.7715 35.4873L39.274 15.8456C39.6442 15.4176 40.1679 15.1525 40.732 15.1075C41.296 15.0626 41.8551 15.2414 42.2884 15.6054C42.7217 15.9693 42.9943 16.4892 43.0474 17.0525C43.1005 17.6159 42.9298 18.1775 42.5721 18.616Z" fill="#115099"/>
</svg>
