<svg width="48" height="48" viewBox="0 0 48 48" fill="none" xmlns="http://www.w3.org/2000/svg">
<rect width="48" height="48" rx="5" fill="black"/>
<path fill-rule="evenodd" clip-rule="evenodd" d="M23.4813 22.1354C23.4626 22.1539 23.4437 22.1722 23.4247 22.1904H23.5152C23.5039 22.1721 23.4926 22.1538 23.4813 22.1354ZM24.6111 20.4474C24.3525 21.0816 23.968 21.6559 23.4813 22.1354C22.7833 20.9942 22.3605 19.7045 22.2471 18.3693V18.0054C22.2471 16.9136 22.7363 16.113 23.5696 16.113C24.4029 16.113 24.9826 16.9136 24.9826 18.1509V18.3693C25.0063 19.0806 24.8796 19.7888 24.6111 20.4474ZM22.3739 27.4671L25.6529 33.7082L25.5624 33.7992C25.3029 34.1657 24.9609 34.4655 24.5642 34.6742C24.1676 34.8828 23.7275 34.9945 23.2797 35.0001C21.8305 35.0001 20.8884 33.69 20.8884 31.7249V31.4337C20.939 29.9841 21.4608 28.5909 22.3739 27.4671ZM16.6493 31.7613V31.8341C16.5828 32.6906 16.6891 33.5519 16.9618 34.3662C17.0884 34.7444 17.2497 35.1088 17.443 35.455H15.2603H13.7907V21.6114L10.8907 30.3004H10.8256L7.9256 21.6114V35.455H4.11328V12.5459H8.05594L10.8582 20.9404L13.6604 12.5459H15.2603H17.603H23.728C23.6994 12.5459 23.6707 12.5462 23.6421 12.5467C22.9271 12.5456 22.2194 12.6911 21.5623 12.9743C20.9053 13.2575 20.3127 13.6724 19.8208 14.1937C19.329 14.7149 18.9483 15.3315 18.702 16.0057C18.4557 16.6799 18.349 17.3975 18.3884 18.1145V18.3693C18.5241 20.4939 19.2662 22.5343 20.5261 24.2465C19.3535 25.1205 18.3949 26.2517 17.7231 27.5539C17.0513 28.8561 16.684 30.295 16.6493 31.7613ZM23.7328 12.5459C24.4044 12.5462 25.0695 12.6815 25.6888 12.944C26.3359 13.2184 26.9188 13.6257 27.3999 14.1397C27.881 14.6538 28.2498 15.2633 28.4824 15.9291C28.7151 16.5948 28.8065 17.302 28.7508 18.0054V18.3693C28.7186 19.7167 28.3745 21.0382 27.7456 22.2288C27.1167 23.4195 26.2203 24.4467 25.1276 25.229L27.4102 29.596C27.5913 28.7954 27.7363 27.7764 27.9537 26.1752L31.3595 26.7939C31.1574 29.049 30.6074 31.2589 29.729 33.3443L30.9479 35.455H34.2095V21.6114L37.1095 30.3004H37.1746L40.0746 21.6114V35.455H43.8869V12.5459H39.9443L37.1421 20.9404L34.3398 12.5459H23.7328Z" fill="#FCEB09"/>
</svg>
